<svg width="782" height="639" viewBox="0 0 782 639" fill="none" xmlns="http://www.w3.org/2000/svg">
<g clip-path="url(#clip0_1_2)">
<path d="M484.291 148.896C525.014 148.896 558.027 115.883 558.027 75.1599C558.027 34.4366 525.014 1.42383 484.291 1.42383C443.568 1.42383 410.555 34.4366 410.555 75.1599C410.555 115.883 443.568 148.896 484.291 148.896Z" fill="#6C63FF"/>
<path d="M370.969 548.2C416.239 548.2 452.938 540.544 452.938 531.1C452.938 521.656 416.239 514 370.969 514C325.699 514 289 521.656 289 531.1C289 540.544 325.699 548.2 370.969 548.2Z" fill="#E5D3F3"/>
<path d="M483.79 111.896C408.65 111.889 349.791 98.2672 349.793 80.8839C349.794 70.462 370.651 61.1651 407.015 55.3778C407.145 55.3561 407.277 55.3601 407.405 55.3896C407.533 55.4191 407.654 55.4735 407.761 55.5498C407.868 55.626 407.959 55.7225 408.029 55.8339C408.098 55.9452 408.145 56.0692 408.167 56.1987C408.189 56.3282 408.185 56.4608 408.155 56.5887C408.126 56.7167 408.071 56.8376 407.995 56.9445C407.919 57.0515 407.822 57.1423 407.711 57.212C407.599 57.2816 407.475 57.3286 407.346 57.3503L407.342 57.3509L407.33 57.3529C373.074 62.8049 351.794 71.8215 351.793 80.884C351.792 96.6038 412.239 109.889 483.79 109.896C555.342 109.902 615.792 96.6276 615.793 80.9078C615.794 71.8073 594.379 62.7649 559.905 57.31C559.775 57.2904 559.651 57.2454 559.538 57.1774C559.425 57.1095 559.327 57.02 559.249 56.9141C559.171 56.8082 559.115 56.6879 559.084 56.5602C559.052 56.4325 559.046 56.2999 559.066 56.1699C559.086 56.0399 559.131 55.9151 559.199 55.8027C559.268 55.6902 559.357 55.5923 559.463 55.5146C559.569 55.4368 559.69 55.3807 559.818 55.3496C559.945 55.3184 560.078 55.3127 560.208 55.3329L560.211 55.3334L560.218 55.3345C596.809 61.1244 617.794 70.4456 617.793 80.908C617.791 98.2913 558.93 111.903 483.79 111.896Z" fill="#3F3D56"/>
<path d="M489.146 99.9843C424.397 138.11 366.767 156.242 357.947 141.263C352.659 132.282 365.913 113.687 394.31 90.2459C394.41 90.1615 394.527 90.0977 394.652 90.0582C394.777 90.0187 394.909 90.0042 395.04 90.0156C395.17 90.027 395.298 90.0641 395.414 90.1247C395.531 90.1853 395.634 90.2683 395.719 90.3689C395.803 90.4694 395.867 90.5857 395.906 90.7109C395.946 90.8361 395.96 90.9679 395.949 91.0987C395.938 91.2296 395.9 91.3569 395.84 91.4734C395.779 91.5899 395.696 91.6933 395.596 91.7777L395.593 91.7802L395.583 91.7883C368.833 113.87 355.072 132.438 359.67 140.248C367.646 153.794 426.474 134.566 488.131 98.2609C549.788 61.9558 595.138 19.8406 587.162 6.29473C582.545 -1.54734 559.504 1.52854 527.031 14.3228C526.909 14.3716 526.778 14.3959 526.647 14.3943C526.516 14.3927 526.386 14.3652 526.265 14.3134C526.145 14.2617 526.035 14.1867 525.943 14.0927C525.852 13.9987 525.779 13.8875 525.731 13.7656C525.682 13.6437 525.658 13.5133 525.659 13.382C525.661 13.2507 525.688 13.1209 525.74 13.0002C525.792 12.8795 525.867 12.7702 525.961 12.6785C526.055 12.5868 526.166 12.5144 526.288 12.4657L526.291 12.4645L526.298 12.4618C560.765 -1.11796 583.577 -3.73569 588.886 5.2799C597.706 20.2593 553.895 61.8584 489.146 99.9843Z" fill="#3F3D56"/>
<path d="M217.52 604.765C269.187 604.765 311.072 596.028 311.072 585.249C311.072 574.47 269.187 565.732 217.52 565.732C165.853 565.732 123.968 574.47 123.968 585.249C123.968 596.028 165.853 604.765 217.52 604.765Z" fill="url(#paint0_linear_1_2)"/>
<path d="M598.52 638.346C675.559 638.346 738.011 625.318 738.011 609.246C738.011 593.174 675.559 580.146 598.52 580.146C521.481 580.146 459.029 593.174 459.029 609.246C459.029 625.318 521.481 638.346 598.52 638.346Z" fill="url(#paint1_linear_1_2)" fill-opacity="0.88"/>
<path d="M57.7868 323.896C61.6528 323.896 64.7868 320.762 64.7868 316.896C64.7868 313.03 61.6528 309.896 57.7868 309.896C53.9208 309.896 50.7868 313.03 50.7868 316.896C50.7868 320.762 53.9208 323.896 57.7868 323.896Z" fill="white"/>
<path d="M547.787 425.896C551.653 425.896 554.787 422.762 554.787 418.896C554.787 415.03 551.653 411.896 547.787 411.896C543.921 411.896 540.787 415.03 540.787 418.896C540.787 422.762 543.921 425.896 547.787 425.896Z" fill="white"/>
<path d="M308.72 194.976C325.714 199.826 325.061 209.976 345.22 209.976C365.378 209.976 381.72 212.649 381.72 194.976C381.72 177.303 373.696 144.449 345.22 145.976C314.57 147.619 298.416 192.036 308.72 194.976Z" fill="#2F2E41"/>
<path d="M263.994 344.629C263.263 343.24 262.845 341.706 262.771 340.137C262.696 338.569 262.966 337.003 263.563 335.55C264.159 334.097 265.066 332.792 266.221 331.728C267.376 330.664 268.75 329.865 270.247 329.39L312.063 240.931L331.191 254.344L284.072 337.078C284.705 339.646 284.374 342.356 283.142 344.695C281.91 347.035 279.862 348.841 277.387 349.772C274.912 350.703 272.182 350.693 269.713 349.745C267.245 348.798 265.21 346.977 263.994 344.629Z" fill="#FFB8B8"/>
<path d="M299.826 252.675C299.627 252.012 299.573 251.314 299.668 250.628C299.764 249.943 300.006 249.286 300.378 248.702L313.38 228.32C314.824 225.087 317.493 222.558 320.799 221.289C324.106 220.019 327.781 220.113 331.018 221.55C334.255 222.986 336.791 225.647 338.069 228.951C339.347 232.254 339.263 235.929 337.835 239.17L331.286 262.523C331.099 263.19 330.771 263.808 330.323 264.336C329.876 264.864 329.32 265.29 328.693 265.584C328.066 265.877 327.384 266.033 326.692 266.039C325.999 266.045 325.314 265.902 324.682 265.62L302.474 255.689C301.841 255.406 301.278 254.991 300.821 254.471C300.364 253.951 300.024 253.338 299.826 252.675Z" fill="#6C63FF"/>
<path d="M415.837 515.575L404.317 519.77L382.656 477.332L399.658 471.141L415.837 515.575Z" fill="#FFB8B8"/>
<path d="M394.89 519.474L417.107 511.385L422.2 525.373L385.994 538.556C384.644 534.846 384.822 530.751 386.49 527.173C388.158 523.594 391.18 520.825 394.89 519.474Z" fill="#2F2E41"/>
<path d="M384.388 488.731L340.501 411.929C340.077 411.186 339.858 410.344 339.867 409.488C339.876 408.633 340.113 407.795 340.553 407.061L360.315 374.124C360.784 373.343 361.464 372.711 362.278 372.3C363.091 371.89 364.005 371.72 364.911 371.808C365.818 371.896 366.681 372.239 367.401 372.798C368.12 373.357 368.666 374.109 368.976 374.966L406.34 478.434C406.751 479.56 406.726 480.8 406.269 481.908C405.812 483.017 404.957 483.914 403.871 484.424L390.632 490.694C389.993 490.997 389.295 491.154 388.588 491.153C387.737 491.155 386.9 490.931 386.163 490.506C385.425 490.081 384.813 489.469 384.388 488.731Z" fill="#2F2E41"/>
<path d="M343.662 209.017C357.227 209.017 368.223 198.02 368.223 184.456C368.223 170.891 357.227 159.895 343.662 159.895C330.097 159.895 319.101 170.891 319.101 184.456C319.101 198.02 330.097 209.017 343.662 209.017Z" fill="#FFB8B8"/>
<path d="M308.727 295.707C289.385 252.819 308.884 228.848 318.165 220.534C320.839 218.136 324.304 216.81 327.896 216.812H362.495C364.98 216.812 367.423 217.447 369.593 218.657C371.763 219.867 373.588 221.612 374.894 223.725C376.201 225.839 376.945 228.251 377.057 230.733C377.168 233.215 376.644 235.685 375.533 237.907L352.403 284.166L308.915 296.125L308.727 295.707Z" fill="#6C63FF"/>
<path d="M336.698 527.172L324.438 527.171L318.606 479.883L336.7 479.884L336.698 527.172Z" fill="#FFB8B8"/>
<path d="M315.681 523.668H339.325V538.555H300.794C300.794 536.6 301.179 534.664 301.927 532.858C302.676 531.052 303.772 529.411 305.154 528.028C306.537 526.646 308.178 525.549 309.984 524.801C311.79 524.053 313.726 523.668 315.681 523.668Z" fill="#2F2E41"/>
<path d="M331.503 509.119L311.875 506.855C310.605 506.708 309.446 506.064 308.653 505.062C307.859 504.061 307.495 502.785 307.642 501.516C307.645 501.489 307.648 501.462 307.652 501.435L325.17 369.535C325.231 369.076 325.206 368.609 325.097 368.159L307.49 295.514C307.323 294.844 307.304 294.146 307.434 293.468C307.565 292.79 307.841 292.148 308.243 291.588C310.974 287.823 320.329 279.051 348.158 278.885H348.188C349.114 278.885 350.022 279.151 350.801 279.653C351.581 280.154 352.2 280.868 352.585 281.711L356.297 289.878C356.573 290.484 357.006 291.006 357.55 291.39C362.659 295.007 387.412 315.308 372.878 359.879C358.593 403.686 340.29 488.733 336.766 505.337C336.542 506.417 335.952 507.385 335.096 508.08C334.24 508.775 333.171 509.153 332.069 509.152C331.88 509.152 331.691 509.141 331.503 509.119Z" fill="#2F2E41"/>
<path d="M429.142 190.62C429.189 191.172 429.28 191.718 429.414 192.255L396.067 228.963L384.289 226.425L378.135 243.699L398.549 250.218C400.198 250.745 401.973 250.723 403.609 250.154C405.244 249.586 406.651 248.503 407.618 247.067L439.139 200.272C441.268 200.366 443.376 199.81 445.182 198.678C446.988 197.545 448.406 195.89 449.249 193.932C450.091 191.973 450.317 189.805 449.896 187.715C449.476 185.625 448.43 183.713 446.896 182.233C445.362 180.752 443.414 179.773 441.311 179.427C439.208 179.081 437.049 179.383 435.121 180.294C433.194 181.204 431.589 182.68 430.521 184.525C429.453 186.369 428.972 188.495 429.142 190.62Z" fill="#FFB8B8"/>
<path d="M395.058 230.519L387.326 251.891C387.106 252.499 386.758 253.053 386.305 253.514C385.852 253.975 385.304 254.334 384.7 254.564C384.096 254.795 383.449 254.893 382.804 254.851C382.159 254.809 381.53 254.629 380.961 254.322L361.013 243.575C357.907 242.432 355.382 240.105 353.99 237.103C352.599 234.101 352.454 230.669 353.589 227.561C354.724 224.453 357.045 221.921 360.043 220.522C363.042 219.122 366.473 218.969 369.584 220.096L391.72 224.578C392.354 224.707 392.953 224.97 393.475 225.351C393.998 225.732 394.433 226.22 394.749 226.784C395.066 227.348 395.257 227.974 395.311 228.618C395.364 229.263 395.278 229.911 395.058 230.519Z" fill="#6C63FF"/>
<path d="M373.72 182.976H364.005L359.72 170.976L358.863 182.976H354.22L351.72 175.976L351.22 182.976C339.069 188.103 327.551 188.244 316.72 182.976C316.72 176.081 319.459 169.467 324.335 164.591C329.211 159.715 335.824 156.976 342.72 156.976H347.72C354.615 156.976 361.228 159.715 366.104 164.591C370.98 169.467 373.72 176.081 373.72 182.976Z" fill="#2F2E41"/>
<path d="M114.287 439.896H110.787V436.396C110.787 435.202 110.313 434.058 109.469 433.214C108.625 432.37 107.48 431.896 106.287 431.896C105.093 431.896 103.949 432.37 103.105 433.214C102.261 434.058 101.787 435.202 101.787 436.396V439.896H98.2868C97.0933 439.896 95.9487 440.37 95.1048 441.214C94.2609 442.058 93.7868 443.202 93.7868 444.396C93.7868 445.589 94.2609 446.734 95.1048 447.578C95.9487 448.422 97.0933 448.896 98.2868 448.896H101.787V452.396C101.787 453.589 102.261 454.734 103.105 455.578C103.949 456.422 105.093 456.896 106.287 456.896C107.48 456.896 108.625 456.422 109.469 455.578C110.313 454.734 110.787 453.589 110.787 452.396V448.896H114.287C115.48 448.896 116.625 448.422 117.469 447.578C118.313 446.734 118.787 445.589 118.787 444.396C118.787 443.202 118.313 442.058 117.469 441.214C116.625 440.37 115.48 439.896 114.287 439.896Z" fill="white"/>
<path d="M629.447 354.056H627.627V352.236C627.627 351.615 627.38 351.02 626.941 350.581C626.503 350.143 625.907 349.896 625.287 349.896C624.666 349.896 624.071 350.143 623.632 350.581C623.193 351.02 622.947 351.615 622.947 352.236V354.056H621.127C620.506 354.056 619.911 354.302 619.472 354.741C619.033 355.18 618.787 355.775 618.787 356.396C618.787 357.017 619.033 357.612 619.472 358.051C619.911 358.489 620.506 358.736 621.127 358.736H622.947V360.556C622.947 361.177 623.193 361.772 623.632 362.211C624.071 362.649 624.666 362.896 625.287 362.896C625.907 362.896 626.503 362.649 626.941 362.211C627.38 361.772 627.627 361.177 627.627 360.556V358.736H629.447C630.067 358.737 630.663 358.492 631.103 358.054C631.542 357.615 631.79 357.021 631.791 356.4C631.792 355.779 631.547 355.184 631.108 354.744C630.67 354.305 630.076 354.057 629.455 354.056H629.447Z" fill="#FF6584"/>
<path d="M98.4468 233.056H96.6268V231.236C96.6279 230.615 96.3825 230.02 95.9445 229.58C95.5065 229.14 94.9117 228.893 94.2911 228.892C93.9838 228.891 93.6794 228.951 93.3953 229.068C93.1112 229.185 92.8529 229.357 92.6352 229.574C92.1956 230.012 91.9479 230.607 91.9468 231.227V233.056H90.1268C89.8195 233.055 89.5151 233.115 89.231 233.233C88.9469 233.35 88.6886 233.522 88.471 233.738C88.2533 233.955 88.0805 234.213 87.9624 234.497C87.8443 234.78 87.7832 235.085 87.7827 235.392C87.7821 235.699 87.8421 236.004 87.9592 236.288C88.0763 236.572 88.2482 236.83 88.4651 237.048C88.682 237.265 88.9397 237.438 89.2234 237.556C89.5071 237.674 89.8113 237.735 90.1186 237.736H91.9468V239.556C91.9456 240.177 92.191 240.772 92.6291 241.212C93.0671 241.652 93.6618 241.899 94.2824 241.9C94.903 241.901 95.4987 241.656 95.9383 241.218C96.378 240.78 96.6256 240.185 96.6268 239.565V237.736H98.4468C99.0674 237.738 99.6633 237.493 100.103 237.055C100.543 236.618 100.792 236.023 100.793 235.403C100.795 234.782 100.55 234.186 100.113 233.746C99.6751 233.306 99.0806 233.058 98.46 233.056H98.455L98.4468 233.056Z" fill="#6C63FF"/>
<path d="M233.447 233.056H231.627V231.236C231.628 230.615 231.383 230.02 230.944 229.58C230.506 229.14 229.912 228.893 229.291 228.892C228.671 228.89 228.075 229.136 227.635 229.574C227.196 230.012 226.948 230.607 226.947 231.227V233.056H225.127C224.506 233.055 223.911 233.3 223.471 233.738C223.031 234.177 222.784 234.771 222.783 235.392C222.782 236.012 223.027 236.608 223.465 237.048C223.903 237.487 224.498 237.735 225.119 237.736H226.947V239.556C226.946 240.177 227.191 240.772 227.629 241.212C228.067 241.652 228.662 241.899 229.282 241.9C229.903 241.901 230.499 241.656 230.938 241.218C231.378 240.78 231.626 240.185 231.627 239.565V237.736H233.447C234.067 237.738 234.663 237.493 235.103 237.055C235.543 236.618 235.792 236.023 235.793 235.403C235.795 234.782 235.55 234.186 235.113 233.746C234.675 233.306 234.081 233.058 233.46 233.056H233.455L233.447 233.056Z" fill="white"/>
<path d="M698.447 473.056H696.627V471.236C696.627 470.615 696.38 470.02 695.941 469.581C695.503 469.142 694.907 468.896 694.287 468.896C693.666 468.896 693.071 469.142 692.632 469.581C692.193 470.02 691.947 470.615 691.947 471.236V473.056H690.127C689.506 473.056 688.911 473.302 688.472 473.741C688.033 474.18 687.787 474.775 687.787 475.396C687.787 476.017 688.033 476.612 688.472 477.051C688.911 477.489 689.506 477.736 690.127 477.736H691.947V479.556C691.947 480.177 692.193 480.772 692.632 481.211C693.071 481.649 693.666 481.896 694.287 481.896C694.907 481.896 695.503 481.649 695.941 481.211C696.38 480.772 696.627 480.177 696.627 479.556V477.736H698.447C699.067 477.736 699.663 477.489 700.101 477.051C700.54 476.612 700.787 476.017 700.787 475.396C700.787 474.775 700.54 474.18 700.101 473.741C699.663 473.302 699.067 473.056 698.447 473.056Z" fill="white"/>
<path d="M488.447 278.056H486.627V276.236C486.627 275.615 486.38 275.02 485.941 274.581C485.503 274.143 484.907 273.896 484.287 273.896C483.666 273.896 483.071 274.143 482.632 274.581C482.193 275.02 481.947 275.615 481.947 276.236V278.056H480.127C479.506 278.056 478.911 278.302 478.472 278.741C478.033 279.18 477.787 279.775 477.787 280.396C477.787 281.017 478.033 281.612 478.472 282.051C478.911 282.489 479.506 282.736 480.127 282.736H481.947V284.556C481.947 285.177 482.193 285.772 482.632 286.211C483.071 286.649 483.666 286.896 484.287 286.896C484.907 286.896 485.503 286.649 485.941 286.211C486.38 285.772 486.627 285.177 486.627 284.556V282.736H488.447C488.754 282.737 489.058 282.677 489.343 282.559C489.627 282.442 489.885 282.27 490.103 282.054C490.32 281.837 490.493 281.579 490.611 281.295C490.729 281.012 490.79 280.707 490.791 280.4C490.791 280.093 490.731 279.788 490.614 279.504C490.497 279.22 490.325 278.962 490.108 278.744C489.892 278.527 489.634 278.354 489.35 278.236C489.066 278.118 488.762 278.057 488.455 278.056H488.447Z" fill="white"/>
<path d="M167.447 328.056H165.627V326.236C165.628 325.615 165.383 325.02 164.944 324.58C164.506 324.14 163.912 323.893 163.291 323.892C162.671 323.89 162.075 324.136 161.635 324.574C161.196 325.012 160.948 325.607 160.947 326.227V328.056H159.127C158.506 328.055 157.911 328.3 157.471 328.738C157.031 329.177 156.784 329.771 156.783 330.392C156.782 331.012 157.027 331.608 157.465 332.048C157.903 332.487 158.498 332.735 159.119 332.736H160.947V334.556C160.946 335.177 161.191 335.772 161.629 336.212C162.067 336.652 162.662 336.899 163.282 336.9C163.903 336.901 164.499 336.656 164.938 336.218C165.378 335.78 165.626 335.185 165.627 334.565V332.736H167.447C168.067 332.737 168.663 332.492 169.103 332.054C169.542 331.615 169.79 331.021 169.791 330.4C169.792 329.78 169.546 329.184 169.108 328.744C168.67 328.305 168.076 328.057 167.455 328.056L167.447 328.056Z" fill="white"/>
<path d="M173.447 162.056H171.627V160.236C171.628 159.615 171.383 159.02 170.944 158.58C170.506 158.14 169.912 157.893 169.291 157.892C168.671 157.89 168.075 158.136 167.635 158.574C167.196 159.012 166.948 159.607 166.947 160.227V162.056H165.127C164.506 162.055 163.911 162.3 163.471 162.738C163.031 163.177 162.784 163.771 162.783 164.392C162.782 165.012 163.027 165.608 163.465 166.048C163.903 166.487 164.498 166.735 165.119 166.736H166.947V168.556C166.946 169.177 167.191 169.772 167.629 170.212C168.067 170.652 168.662 170.899 169.282 170.9C169.903 170.901 170.499 170.656 170.938 170.218C171.378 169.78 171.626 169.185 171.627 168.565V166.736H173.447C174.067 166.737 174.663 166.492 175.103 166.054C175.542 165.615 175.79 165.021 175.791 164.4C175.792 163.78 175.546 163.184 175.108 162.744C174.67 162.305 174.076 162.057 173.455 162.056L173.447 162.056Z" fill="white"/>
<path d="M484.288 97.4992C411.852 60.9089 351.108 72.7985 350.291 66.4872C350.292 56.0653 371.149 46.7683 407.513 40.981C407.643 40.9592 407.775 40.963 407.903 40.9924C408.032 41.0218 408.153 41.0762 408.26 41.1524C408.367 41.2287 408.458 41.3252 408.527 41.4366C408.597 41.5481 408.644 41.6721 408.666 41.8017C408.688 41.9314 408.684 42.064 408.654 42.192C408.624 42.3201 408.57 42.4411 408.494 42.5481C408.417 42.655 408.321 42.7459 408.209 42.8155C408.098 42.885 407.973 42.932 407.844 42.9535L407.84 42.9542L407.827 42.9562C373.572 48.4082 352.292 57.4248 352.291 66.4873C352.289 82.207 412.737 95.4927 484.288 95.4992C555.84 95.5057 616.289 82.2308 616.291 66.5111C616.292 57.4105 594.877 48.3681 560.403 42.9133C560.273 42.8934 560.149 42.8482 560.036 42.7801C559.924 42.7121 559.826 42.6226 559.749 42.5168C559.671 42.4109 559.615 42.2908 559.583 42.1633C559.552 42.0357 559.546 41.9033 559.566 41.7734C559.586 41.6436 559.631 41.519 559.699 41.4066C559.767 41.2943 559.857 41.1965 559.962 41.1187C560.068 41.0409 560.188 40.9848 560.316 40.9535C560.444 40.9221 560.576 40.9162 560.706 40.9361L560.709 40.9366L560.716 40.9377C597.307 46.7276 618.292 56.0488 618.291 66.5112C618.289 83.8946 551.357 131.378 484.288 97.4992Z" fill="#3F3D56"/>
</g>
<defs>
<linearGradient id="paint0_linear_1_2" x1="123.968" y1="585.249" x2="311.072" y2="585.249" gradientUnits="userSpaceOnUse">
<stop stop-color="#84B6C3"/>
<stop offset="0.135" stop-color="#7BA9B5"/>
<stop offset="1" stop-color="#3F575D"/>
</linearGradient>
<linearGradient id="paint1_linear_1_2" x1="459.029" y1="609.246" x2="738.011" y2="609.246" gradientUnits="userSpaceOnUse">
<stop offset="0.14" stop-color="#FFD780"/>
<stop offset="0.935" stop-color="#99814D"/>
</linearGradient>
<clipPath id="clip0_1_2">
<rect width="781.723" height="638.346" fill="white"/>
</clipPath>
</defs>
</svg>
